# xmcd
#
# Track frame offsets: 
#        150
#        15271
#        30658
#        59511
#        76568
#        93064
#        114414
#        126128
#        147286
#        159884
#        176904
#        195558
#        213918
#        231015
#
# Disc length: 3316 seconds
#
# Revision: 0
# Processed by: cddbd v1.5.2PL0 Copyright (c) Steve Scherf et al.
# Submitted via: ExactAudioCopy v0.99pb3
#
DISCID=a40cf20e
DTITLE=Brad Paisley - Playlist
DYEAR=2009
DGENRE=Country
TTITLE0=Me Neither
TTITLE1=Wrapped Around
TTITLE2=New Again
TTITLE3=Sharp Dressed Man
TTITLE4=The Cigar Song
TTITLE5=He Didn't Have To Be
TTITLE6=Chicken Chet
TTITLE7=Ode De Toilet
TTITLE8=Two Feet Of Top Soil
TTITLE9=Who Needs Pictures
TTITLE10=Two People Fell In Love
TTITLE11=Keep On The Sunny Side
TTITLE12=We Danced
TTITLE13=Time Warp
EXTD=
EXTT0=
EXTT1=
EXTT2=
EXTT3=
EXTT4=
EXTT5=
EXTT6=
EXTT7=
EXTT8=
EXTT9=
EXTT10=
EXTT11=
EXTT12=
EXTT13=
PLAYORDER=
